<svg xmlns="http://www.w3.org/2000/svg" viewBox="0 0 180 30" fill="none">
  <!-- Text: G -->
  <text
    x="0"
    y="15"
    font-family="Manrope, sans-serif"
    font-size="26"
    font-weight="700"
    fill="white"
    letter-spacing="-0.5"
    dominant-baseline="middle"
  >
    G
  </text>

  <!-- Location Pin Icon replacing "O" in Golf -->
  <g transform="scale(1.3) translate(13, -1)">
    <path
      fill="hsl(192, 80%, 80%)"
      fillRule="evenodd"
      d="M9.69 18.933l.003.001C9.89 19.02 10 19 10 19s.11.02.308-.066l.002-.001.006-.003.018-.008a5.741 5.741 0 00.281-.14c.186-.096.446-.24.757-.433.62-.384 1.445-.966 2.274-1.765C15.302 14.988 17 12.493 17 9A7 7 0 103 9c0 3.492 1.698 5.988 3.355 7.584a13.731 13.731 0 002.273 1.765 11.842 11.842 0 00.976.544l.062.029.018.008.006.003zM10 11.25a2.25 2.25 0 100-4.5 2.25 2.25 0 000 4.5z"
      clipRule="evenodd"
    />
  </g>

  <!-- Text: lfKart.no -->
  <text
    x="40"
    y="15"
    font-family="Manrope, sans-serif"
    font-size="26"
    font-weight="700"
    fill="white"
    letter-spacing="-0.5"
    dominant-baseline="middle"
  >
    lfKart.no
  </text>
</svg>
